<svg id="color" enable-background="new 0 0 24 24" height="412" viewBox="0 0 24 24" width="312" xmlns="http://www.w3.org/2000/svg"><path d="m14.25 14.25h-1.25v-3.25c0-.552-.447-1-1-1s-1 .448-1 1v3.25h-1.25c-.666 0-1.001.809-.53 1.28l2.25 2.25c.146.147.339.22.53.22s.384-.073.53-.22l2.25-2.25c.471-.471.136-1.28-.53-1.28z" fill="#C3AED6"/><path d="m15 22h-6c-1.104 0-2-.897-2-2v-1c0-.552.447-1 1-1s1 .448 1 1v1h6v-1c0-.552.447-1 1-1s1 .448 1 1v1c0 1.103-.896 2-2 2z" fill="#C3AED6"/><path d="m21.5 4h-11.293l-1.853-1.854c-.094-.093-.221-.146-.354-.146h-5.5c-1.379 0-2.5 1.122-2.5 2.5v13c0 1.378 1.121 2.5 2.5 2.5h2.5v-1c0-1.391.955-2.552 2.241-2.891-.299-.674-.325-1.451-.03-2.162.328-.792.993-1.369 1.789-1.593v-1.354c0-1.654 1.346-3 3-3s3 1.346 3 3v1.354c.796.225 1.461.802 1.789 1.594.295.711.269 1.488-.029 2.162 1.285.338 2.24 1.499 2.24 2.89v1h2.5c1.379 0 2.5-1.122 2.5-2.5v-11c0-1.378-1.121-2.5-2.5-2.5z" fill="#C3AED6"/><path d="m12 10c-.553 0-1 .448-1 1v3.25h-1.25c-.666 0-1.001.809-.53 1.28l2.25 2.25c.146.147.339.22.53.22z" fill="#C3AED6"/><path d="m8 18c-.553 0-1 .448-1 1v1c0 1.103.897 2 2 2h3v-2h-3v-1c0-.552-.447-1-1-1z" fill="#C3AED6"/><path d="m8 2h-5.5c-1.379 0-2.5 1.122-2.5 2.5v13c0 1.378 1.121 2.5 2.5 2.5h2.5v-1c0-1.391.955-2.552 2.241-2.891-.299-.674-.325-1.451-.03-2.162.328-.792.993-1.369 1.789-1.593v-1.354c0-1.654 1.346-3 3-3v-4h-1.793l-1.853-1.854c-.094-.093-.221-.146-.354-.146z" fill="#C3AED6"/></svg>